<?xml version="1.0" encoding="utf-8"?>
<!-- Generator: Adobe Illustrator 18.1.1, SVG Export Plug-In . SVG Version: 6.00 Build 0)  -->
<svg version="1.1" id="Layer_1" xmlns="http://www.w3.org/2000/svg" xmlns:xlink="http://www.w3.org/1999/xlink" x="0px" y="0px"
	 viewBox="76.9 46.5 804.3 98.8" enable-background="new 76.9 46.5 804.3 98.8" xml:space="preserve">
<path fill="#FFFFFF" d="M281,143.5L281,143.5c0-0.1,0-0.1,0-0.1v-0.1v-0.1h-0.2l-4.8-30.3l0,0c0-0.5-0.2-1-0.6-1.3s-0.9-0.5-1.4-0.4
	l0,0l-7.4,1.1l-21.8-46.5c-0.5-1-1.7-1.4-2.7-1L229,71l-17.2-23.7c-0.1-0.1-0.2-0.2-0.3-0.3c-0.4-0.4-0.9-0.5-1.4-0.5
	c-0.2,0-0.5,0.1-0.7,0.2c-0.1,0.1-0.3,0.1-0.4,0.2l-33.7,24.4l-32.8-22.1c-0.1-0.1-0.2-0.1-0.4-0.2c-0.1,0-0.1,0-0.2-0.1
	c-0.1,0-0.1,0-0.2-0.1h-0.1c-0.6-0.1-1.2,0.1-1.7,0.6c-0.1,0.1-0.2,0.2-0.2,0.3L112,91l-15.7-4.7c-0.1,0-0.2,0-0.2,0
	c-0.1,0-0.1,0-0.2,0c-0.7-0.1-1.5,0.3-1.9,0.9c-0.1,0.1-0.2,0.3-0.2,0.5L77.1,143l0,0v0.1v0.1l0,0c0,0,0,0,0,0.1v0.1v0.1v0.1l0,0
	v0.1v0.1l0,0l0,0c0,0,0,0,0,0.1l0,0c0,0,0,0,0,0.1v0.1v0.1c0,0,0,0,0,0.1c0,0,0,0,0,0.1H77h-0.1l0,0l0.1,0.1l0.1,0.1l0.1,0.1l0,0
	l0,0c0,0,0,0,0,0.1l0,0l0,0l0.1,0.1c0,0,0,0.1,0.1,0.1l0,0c0,0,0.1,0,0.1,0.1l0,0c0,0,0,0,0.1,0.1l0,0l0,0c0,0,0,0,0.1,0
	c0,0,0,0,0.1,0h0.1c0.1,0,0.1,0.1,0.2,0.1c0,0,0,0,0.1,0l0,0c0,0,0,0,0.1,0h0.1c0.1,0,0.3,0,0.4,0l0,0l0,0c0.1,0,0.2,0,0.3,0
	l131.6-20.4l67.5,20.4l0,0c0,0,0,0,0.1,0h0.1c0.1,0,0.3,0,0.4,0l0,0l0,0c0.1,0,0.2,0,0.3,0c0,0,0,0,0.1,0h0.1h0.1c0,0,0,0,0.1,0l0,0
	c0,0,0.1,0,0.1-0.1c0,0,0,0,0.1,0l0,0h0.1c0.1,0,0.1-0.1,0.2-0.1l0,0l0,0l0,0l0,0c0,0,0.1,0,0.1-0.1c0,0,0,0,0.1-0.1l0.1-0.1
	c0,0,0,0,0.1-0.1c0,0,0-0.1,0.1-0.1l0.1-0.1l0,0l0,0l0,0l0,0v-0.1c0,0,0-0.1,0.1-0.1v-0.1l0,0c0,0,0,0,0-0.1l0,0l0,0V144v-0.1l0,0
	c0,0,0,0,0-0.1C281,143.7,281,143.7,281,143.5C281,143.6,281,143.6,281,143.5z M138.2,103.1l13.6,4.1l-54.5,25.5L138.2,103.1z
	 M87,135.3l26.7-39.6l19.8,6L87,135.3z M142.3,100.2l33.2-24.1L193,87.9l-35.8,16.8L142.3,100.2z M196.9,90.5l39.4,26.6l-25,3.9
	L163,106.4L196.9,90.5z M201.1,88.5L227.7,76l27.5,38.1l-13.2,2L201.1,88.5z M257.9,117.8l12.9,17.8L247,119.5L257.9,117.8z
	 M262.3,117.1l1.9-0.3l3.9,8.4L262.3,117.1z M272.7,115.5l2.2,14.5l-6.5-13.9L272.7,115.5z M242.1,69.4l20.4,43.6l-2.8,0.4
	l-28.3-39.1L242.1,69.4z M209.8,51.3l15.5,21.5L197.2,86L179,73.6L209.8,51.3z M142,53.5l30,20.2l-34.5,25L116,92.2L142,53.5z
	 M84.7,131.4L97,90.7l12.6,3.8L84.7,131.4z M92.5,139.4l65-30.4l44.5,13.4L92.5,139.4z M241.1,120.4l25.8,17.4L220,123.7
	L241.1,120.4z"/>
<path fill="#FFFFFF" d="M384.2,117.7V92h-26v9.3h15.6v11.4c-1.9,1.4-4.1,2.5-6.6,3.4c-2.5,0.8-5.3,1.3-8.2,1.3c-3.1,0-6-0.6-8.5-1.7
	s-4.7-2.6-6.5-4.6s-3.2-4.3-4.2-6.9c-1-2.7-1.5-5.6-1.5-8.7c0-3,0.5-5.8,1.5-8.4s2.4-4.9,4.2-6.9c1.8-2,3.9-3.5,6.3-4.7
	c2.4-1.1,5-1.7,7.8-1.7c1.9,0,3.7,0.2,5.3,0.5c1.6,0.3,3.1,0.8,4.4,1.3c1.3,0.6,2.6,1.2,3.8,2.1c1.2,0.8,2.4,1.7,3.6,2.7l6.8-8.1
	c-1.6-1.3-3.2-2.5-4.8-3.5c-1.7-1-3.4-1.9-5.3-2.6s-3.9-1.2-6.1-1.6s-4.6-0.6-7.3-0.6c-4.6,0-8.8,0.8-12.7,2.5
	c-3.9,1.7-7.2,4-10,6.9s-5,6.2-6.5,10.1c-1.5,3.8-2.3,7.9-2.3,12.2c0,4.5,0.8,8.6,2.3,12.5c1.5,3.8,3.7,7.2,6.4,10
	c2.8,2.8,6.1,5,10,6.6s8.2,2.4,13,2.4c2.7,0,5.2-0.2,7.7-0.7c2.4-0.5,4.7-1.2,6.9-2.1c2.1-0.9,4.1-1.9,5.9-3.1
	S382.7,119,384.2,117.7L384.2,117.7z M472.9,126.2L456.4,103c2.2-0.6,4.1-1.4,5.9-2.5s3.3-2.4,4.6-3.9c1.3-1.5,2.3-3.3,3-5.3
	s1.1-4.3,1.1-6.9c0-3-0.5-5.7-1.6-8.1c-1-2.4-2.5-4.5-4.5-6.1c-2-1.7-4.3-2.9-7.2-3.8c-2.8-0.9-6-1.4-9.5-1.4H421v61.1h10.7v-21.3
	h13.4l15,21.3h12.8V126.2z M460.1,85c0,3.1-1.1,5.6-3.4,7.5s-5.3,2.8-9.2,2.8h-15.7V74.8h15.6c4,0,7.1,0.9,9.3,2.6
	C459,79.1,460.1,81.7,460.1,85L460.1,85z M538.7,64.6h-10l-26.9,61.6h11l20.7-48.7l10.6,24.4h-10.5l4.1,9.5H548l6.2,14.8h11.4
	L538.7,64.6L538.7,64.6z M646.3,85.6c0-3.1-0.5-6-1.6-8.5s-2.6-4.7-4.6-6.5s-4.5-3.2-7.3-4.1c-2.9-1-6.1-1.4-9.6-1.4h-24.1v61.1
	h10.7v-19.6h12.1c3.4,0,6.5-0.5,9.5-1.4s5.6-2.2,7.8-4c2.2-1.7,4-3.9,5.2-6.5C645.6,92,646.3,89,646.3,85.6L646.3,85.6z M635.3,85.8
	c0,3.3-1.2,6-3.5,8c-2.4,2-5.6,3-9.6,3h-12.5v-22h12.5c4,0,7.2,0.9,9.6,2.8C634.2,79.4,635.3,82.2,635.3,85.8L635.3,85.8z
	 M720.1,100.4v25.8h10.7V65h-10.7v25.4h-29.2V65h-10.7v61.1h10.7v-25.8L720.1,100.4L720.1,100.4z M770,65v61.1h10.7V65H770L770,65z
	 M875,114.4c2-2.7,3.5-5.6,4.6-8.8c1.1-3.2,1.6-6.5,1.6-10c0-4.3-0.8-8.4-2.4-12.2c-1.6-3.8-3.8-7.2-6.5-10c-2.8-2.9-6.1-5.1-10-6.8
	c-3.9-1.7-8.2-2.5-12.9-2.5s-9,0.8-12.9,2.5s-7.3,4-10.1,6.9c-2.9,2.9-5.1,6.2-6.6,10.1c-1.6,3.8-2.4,7.9-2.4,12.2
	c0,4.3,0.8,8.4,2.4,12.2c1.6,3.8,3.8,7.2,6.5,10c2.8,2.9,6.1,5.1,10,6.8c3.9,1.7,8.2,2.5,12.9,2.5c3.6,0,7-0.5,10-1.5
	c3.1-1,5.9-2.4,8.6-4.2l7.3,6.5l6.9-7.7L875,114.4L875,114.4z M859.8,114.4c-1.5,0.9-3.1,1.7-4.8,2.2s-3.6,0.8-5.7,0.8
	c-3,0-5.8-0.6-8.4-1.7c-2.6-1.2-4.8-2.7-6.6-4.7s-3.3-4.3-4.3-6.9s-1.5-5.5-1.5-8.4c0-3,0.5-5.8,1.5-8.4s2.4-4.9,4.2-6.9
	c1.8-1.9,4-3.5,6.5-4.6s5.3-1.7,8.3-1.7s5.8,0.6,8.4,1.7c2.6,1.2,4.8,2.7,6.6,4.7s3.3,4.3,4.3,6.9s1.5,5.5,1.5,8.4
	c0,2.2-0.3,4.2-0.8,6.2c-0.5,1.9-1.3,3.7-2.4,5.4L856,97.8l-6.9,7.9L859.8,114.4z"/>
</svg>
